<svg width="30" height="29" viewBox="0 0 30 29" fill="none" xmlns="http://www.w3.org/2000/svg">
<g filter="url(#filter0_d_2001_72)">
<path d="M16.3854 7.76326C16.3854 8.66029 15.6559 9.38979 14.7588 9.38979C13.8618 9.38979 13.1323 8.66029 13.1323 7.76326C13.1323 6.86622 13.8618 6.13672 14.7588 6.13672C15.6559 6.13672 16.3854 6.86622 16.3854 7.76326ZM22.2147 6.71983C22.0204 6.36932 21.7618 6.10094 21.4682 5.91063C20.9444 5.57231 20.6655 4.95016 20.8038 4.34265C20.8826 3.99376 20.8778 3.61315 20.7647 3.21953C20.5647 2.52093 19.9954 1.95164 19.2968 1.75158C18.9032 1.63854 18.5226 1.63366 18.1745 1.71254C17.5662 1.8508 16.9441 1.57266 16.6057 1.0481C16.4163 0.754514 16.1471 0.495894 15.7974 0.301523C15.1614 -0.0506217 14.3571 -0.0506217 13.7211 0.301523C13.3706 0.495894 13.1022 0.754514 12.9128 1.0481C12.5744 1.57185 11.9523 1.8508 11.344 1.71254C10.9959 1.63366 10.6153 1.63854 10.2217 1.75158C9.52313 1.95164 8.95385 2.52093 8.75379 3.21953C8.64075 3.61315 8.63587 3.99457 8.71475 4.34265C8.85301 4.95098 8.57406 5.57313 8.05032 5.91063C7.75593 6.10012 7.49813 6.36932 7.30376 6.71983C7.12566 7.04026 7.03945 7.40461 7.04108 7.76814C7.03945 8.13167 7.12647 8.4952 7.30376 8.81644C7.49813 9.16696 7.75674 9.43534 8.05032 9.62564C8.57406 9.96396 8.85301 10.5861 8.71475 11.1936C8.63587 11.5425 8.64075 11.9231 8.75379 12.3176C8.95385 13.0162 9.52313 13.5854 10.2217 13.7855C10.6153 13.8986 10.9959 13.9034 11.344 13.8245C11.9523 13.6863 12.5744 13.9644 12.9128 14.489C13.1022 14.7826 13.3706 15.0412 13.7211 15.2356C14.3571 15.5877 15.1622 15.5877 15.7974 15.2356C16.1479 15.0412 16.4163 14.7826 16.6057 14.489C16.9441 13.9652 17.5662 13.6863 18.1745 13.8245C18.5226 13.9034 18.9032 13.8986 19.2968 13.7855C19.9954 13.5854 20.5647 13.0162 20.7647 12.3176C20.8778 11.9239 20.8826 11.5425 20.8038 11.1936C20.6655 10.5853 20.9444 9.96315 21.4682 9.62564C21.7626 9.43615 22.0204 9.16696 22.2147 8.81644C22.3928 8.49601 22.4791 8.13167 22.4774 7.76814C22.4791 7.40461 22.392 7.04108 22.2147 6.71983ZM14.7499 11.018C12.9559 11.018 11.4969 9.55895 11.4969 7.76488C11.4969 5.97081 12.9559 4.51181 14.7499 4.51181C16.5439 4.51181 18.0029 5.97081 18.0029 7.76488C18.0029 9.55895 16.5439 11.018 14.7499 11.018ZM11.588 15.434C10.9976 15.5495 10.3713 15.5202 9.77361 15.3486C8.61391 15.0168 7.67867 14.1238 7.27204 12.995L5.39668 14.8029C4.6062 15.5658 5.06731 16.9044 6.16033 17.0174L7.59572 17.1654L7.77301 18.4407C7.91858 19.4906 9.19701 19.9273 9.95496 19.1864L12.7208 16.5059C12.2711 16.2172 11.8807 15.8683 11.588 15.434ZM16.7977 16.5059L19.5635 19.1864C20.3215 19.9273 21.5999 19.4906 21.7455 18.4407L21.9228 17.1654L23.3582 17.0174C24.4512 16.9044 24.9123 15.5658 24.1218 14.8029L22.2465 12.995C21.8398 14.1238 20.9046 15.0168 19.7449 15.3486C19.1472 15.5202 18.521 15.5495 17.9305 15.434C17.6378 15.8683 17.2474 16.2172 16.7977 16.5059Z" fill="#9E090F"/>
</g>
<defs>
<filter id="filter0_d_2001_72" x="0.407413" y="0.0374146" width="28.7037" height="28.7037" filterUnits="userSpaceOnUse" color-interpolation-filters="sRGB">
<feFlood flood-opacity="0" result="BackgroundImageFix"/>
<feColorMatrix in="SourceAlpha" type="matrix" values="0 0 0 0 0 0 0 0 0 0 0 0 0 0 0 0 0 0 127 0" result="hardAlpha"/>
<feOffset dy="4.59259"/>
<feGaussianBlur stdDeviation="2.29629"/>
<feComposite in2="hardAlpha" operator="out"/>
<feColorMatrix type="matrix" values="0 0 0 0 0.986263 0 0 0 0 0.810858 0 0 0 0 0.817921 0 0 0 1 0"/>
<feBlend mode="normal" in2="BackgroundImageFix" result="effect1_dropShadow_2001_72"/>
<feBlend mode="normal" in="SourceGraphic" in2="effect1_dropShadow_2001_72" result="shape"/>
</filter>
</defs>
</svg>
