<svg width="14" height="11" viewBox="0 0 14 11" fill="none" xmlns="http://www.w3.org/2000/svg">
<path d="M12.9808 1.0819L5.26344 8.98555C5.21155 9.0389 5.14989 9.08123 5.08199 9.11012C5.01409 9.139 4.94129 9.15387 4.86776 9.15387C4.79424 9.15387 4.72144 9.139 4.65354 9.11012C4.58564 9.08123 4.52398 9.0389 4.47209 8.98555L1.48767 5.92601C1.43579 5.87266 1.37412 5.83033 1.30623 5.80144C1.23833 5.77256 1.16553 5.75769 1.092 5.75769C1.01848 5.75769 0.945679 5.77256 0.877779 5.80144C0.80988 5.83033 0.748218 5.87266 0.696332 5.92601C0.64424 5.97916 0.602907 6.04231 0.574704 6.11186C0.546501 6.1814 0.531982 6.25596 0.531982 6.33126C0.531982 6.40657 0.546501 6.48113 0.574704 6.55067C0.602907 6.62022 0.64424 6.68337 0.696332 6.73651L3.68187 9.79376C3.99681 10.1157 4.42362 10.2966 4.8686 10.2966C5.31359 10.2966 5.74039 10.1157 6.05533 9.79376L13.7722 1.89183C13.8242 1.8387 13.8654 1.77558 13.8936 1.70609C13.9217 1.6366 13.9362 1.5621 13.9362 1.48687C13.9362 1.41163 13.9217 1.33713 13.8936 1.26764C13.8654 1.19815 13.8242 1.13503 13.7722 1.0819C13.7203 1.02855 13.6586 0.986216 13.5907 0.95733C13.5228 0.928444 13.45 0.913574 13.3765 0.913574C13.303 0.913574 13.2302 0.928444 13.1623 0.95733C13.0944 0.986216 13.0327 1.02855 12.9808 1.0819Z" fill="white"/>
</svg>
